# xmcd
#
# Track frame offsets:
# 150
# 12956
# 40192
# 54641
# 65622
# 80931
# 98861
# 113093
# 128592
# 151410
# 163410
#
# Disc length: 2454 seconds
#
#
# Revision: 0
# Processed by: cddbd v1.5.2PL0 Copyright (c) Steve Scherf et al.
# Submitted via: FreeRIP 2.945 
#
DISCID=9209940b
DTITLE=The LowFi-Kings feat. Sir Oliver Mally - a hard night's day
DYEAR=2006
DGENRE=Blues
TTITLE0=life ain't too hard
TTITLE1=nighttime woman
TTITLE2=who's been talking
TTITLE3=skippin'
TTITLE4=bottle up
TTITLE5=can't wait to see my baby
TTITLE6=walking the dog
TTITLE7=your mind is on vacation
TTITLE8=the last tear
TTITLE9=honey
TTITLE10=evil
EXTD=
EXTT0=
EXTT1=
EXTT2=
EXTT3=
EXTT4=
EXTT5=
EXTT6=
EXTT7=
EXTT8=
EXTT9=
EXTT10=
PLAYORDER=
